# xmcd
#
# Track frame offsets: 
#        150
#        12722
#        33235
#        41220
#        52962
#        63292
#        72150
#        81095
#        90547
#        102757
#        116237
#        127740
#        140135
#        149477
#        158680
#        167437
#
# Disc length: 2423 seconds
#
# Revision: 3
# Processed by: cddbd v1.5.2PL0 Copyright (c) Steve Scherf et al.
# Submitted via: ExactAudioCopy v1.0b3
#
DISCID=d8097510
DTITLE=Various Artist - The Essential Bluegrass Collection_CD4
DYEAR=2002
DGENRE=Bluegrass
TTITLE0=Jim and Jesse - Colorado Calling Me
TTITLE1=Mac Wiseman - In The Pines
TTITLE2=Donna Stoneman - Under The Double Eagle
TTITLE3=Bluegrass Cardinals - Blue Is The Color Of Lonesome
TTITLE4=Bobby Osborne - High Level Hornpipe
TTITLE5=Grandpa Jones - Wish I'd Stayed In The Wagon Yard
TTITLE6=Buddy Spicher and Benny Martin - Down In Union County
TTITLE7=Nashville Grass and Betty Jean Robinson - Palms Of Victory
TTITLE8=Osborne Brothers - Lonesome Day
TTITLE9=Joe Maphis - Old Black Mountain Saturday Night
TTITLE10=Josh Graves - Little Rosewood Casket
TTITLE11=Lester Flatt and the Nashville Grass - The Johnson Boys
TTITLE12=Fiddlin' Red Herron - Arkansas Traveler
TTITLE13=Stonemans - Blue Ridge Mountain Blues
TTITLE14=Johnny Gimble - Down Yonder
TTITLE15=Don Reno - Skyline Drive
EXTD=\n
EXTT0=
EXTT1=
EXTT2=
EXTT3=
EXTT4=
EXTT5=
EXTT6=
EXTT7=
EXTT8=
EXTT9=
EXTT10=
EXTT11=
EXTT12=
EXTT13=
EXTT14=
EXTT15=
PLAYORDER=
